# xmcd
# 
# Track frame offsets:
#     150
#     14151
#     25205
#     35691
#     54099
#     73614
#     82984
#     100509
#     118745
#     135048
#     144325
#     163195
#     179371
#     198557
#     207639
# 
# Disc length: 2903
# 
# Revision: 6
# Processed by: cddbd v1.5.2PL0 Copyright (c) Steve Scherf et al.
# Submitted via: fre:ac v1.0.31
# 
DISCID=cd0b550f
DTITLE=Christmas - Now That's What I Call A Country Christmas Disc 2
DYEAR=2009
DGENRE=Christmas
TTITLE0=Gene Autry - Rudolph The Red Nosed Reindeer
TTITLE1=Elvis Presley (w Martina McBride) - Blue Christmas
TTITLE2=Merle Haggard - Jingle Bells
TTITLE3=Vince Gill - O Little Town Of Bethlehem
TTITLE4=Alison Krauss - Shimmy Down The Chimney (Fill Up My Stocking)
TTITLE5=Reba McEntire - Up On The Housetop
TTITLE6=Glen Campbell - O Holy Night
TTITLE7=Tanya Tucker - What Child Is This?
TTITLE8=Alabama - Christmas In Dixie
TTITLE9=Brenda Lee - Rockin' Around The Christmas Tree
TTITLE10=Kenny Rogrers - Kentucky Homemade Christmas
TTITLE11=Dolly Parton - Hard Candy Christmas
TTITLE12=Amy Grant - A Christmas To Remember
TTITLE13=Johnny Cash - Silent Knight
TTITLE14=BurI Ives - Holly Jolly Christmas
EXTD=
EXTT0=
EXTT1=
EXTT2=
EXTT3=
EXTT4=
EXTT5=
EXTT6=
EXTT7=
EXTT8=
EXTT9=
EXTT10=
EXTT11=
EXTT12=
EXTT13=
EXTT14=
PLAYORDER=
